<svg xmlns="http://www.w3.org/2000/svg" height="800" width="1200" viewBox="-1032.45 -386.5 8947.9 2319"><path d="M753.34 0h39.34c79.53 2.17 158.81 16.15 233.98 42.34 82.28 28.46 159.58 71.13 227.68 125.34 59.44 47.28 111.89 103.33 155.14 165.77.24.63.74 1.9.99 2.54-10.93-12.52-21.75-25.23-34.07-36.45-29.37-27.66-63.54-50.22-100.54-66.3-37.27-16.22-77.39-25.84-117.95-28.3-57.4-3.64-115.69 6.96-167.97 30.97-77.57 35.25-141.29 99.8-175.42 177.87-76.81-9.57-156.55 6.45-223.66 45.05-63.69 36.32-115.95 92.36-147.55 158.54-36.43 75.32-45.23 163.44-24.89 244.56 14.21 57.71 43.1 111.68 83 155.7 50.22 55.81 118.14 95.48 191.56 111.36 48.53 10.64 99.23 11.16 147.99 1.62 72.93-14.14 141.02-51.61 192.25-105.38 32.86-34.36 59.1-75.16 76.13-119.57 35.63 2.78 71.66-.09 106.46-8.19 9.54 78.93 36.72 155.61 78.72 223.1a560.773 560.773 0 0070.14 90.7c8.7 9.08 17.52 18.09 27.02 26.35-45.54 60.48-99.9 114.3-160.91 159.13-60.4 44.38-127.25 79.99-197.88 105.12-73.25 26.19-150.51 40.82-228.2 44.13h-63.33c-45.09-2.09-90.07-7.59-134.16-17.32-83.29-18.14-163.44-50.4-236.2-94.79-65.08-39.66-124.2-89.03-174.94-145.88-54.41-60.9-99.13-130.46-131.81-205.3-28.74-65.68-48.18-135.42-57.6-206.49C2.89 848.52.94 820.62 0 792.7v-39.36c.66-15.09 1.23-30.2 2.57-45.25 7.26-88.01 29.82-174.75 66.47-255.1C124.7 330.41 213.13 223 322.57 144.62 407.96 83.19 506.06 39.49 608.91 17.34 656.36 6.98 704.81 1.5 753.34 0zm1362.55 224.3c21.94-2.06 43.99-1.98 66-1.7 42.59.96 85.26 4.58 127.03 13.21 40.37 8.47 80.36 21.41 115.72 43.01-18.63 52.87-37.03 105.83-55.66 158.7-24.69-16.55-53.25-26.02-81.66-33.97-42.04-11.68-85.71-17.14-129.31-17.3-22.58.16-45.49 2.35-66.84 10.1-14.37 5.23-28.11 13.01-38.63 24.25-11.29 11.56-17.72 27.39-18.74 43.43-1.67 18.25 3.63 36.94 14.49 51.68 10.75 15.09 26.19 25.85 41.74 35.5 29.5 18.36 61.36 32.63 93.96 44.53 32.36 12.13 64.3 25.4 95.81 39.61 11.16 5.15 22.48 10 33.28 15.89 23.68 12.76 45.26 29.33 63.96 48.66 15.52 16.16 29.77 33.78 40.55 53.5 12.02 21.9 19.78 46.01 23.71 70.64 4.69 29.72 4 60.02.93 89.86-4.87 45.24-18.87 90.38-45.91 127.41-27.64 38.3-68.09 65.78-111.42 83.52-53.09 21.58-110.95 28.63-167.91 28.67-44.12-.2-88.33-2.95-131.9-10.15-50.75-8.35-100.86-22.71-146.77-46.18 19.21-53.4 38.72-106.69 57.89-160.11 17.92 10.41 37.21 18.21 56.81 24.87 32.81 10.98 66.51 19.65 100.89 23.97 35.08 4.45 70.74 5 105.87.74 26.99-3.61 54.68-10.37 76.91-26.84 12.8-9.54 22.92-22.82 27.94-38.04 4.59-13.72 5.92-28.53 4.14-42.87-2.5-18.62-12.8-35.52-26.64-47.94-9-8.33-19.43-14.87-29.83-21.29-26.69-16.07-55.3-28.74-84.6-39.22-38.58-13.4-76.49-28.69-113.63-45.67-13.73-6.09-27.19-12.84-39.8-21.04-31.34-20.19-57.86-47.44-78.59-78.34-24.3-36.66-35.56-80.73-37-124.38-1.44-45.88 4.31-92.91 23.45-135.03 13.87-30.8 35.24-58.15 61.8-79.03 29.62-23.74 64.61-40.26 101.13-50.26 23.14-6.38 46.92-10.32 70.83-12.39zm3273.59-.74c16.49 0 33.23 2.67 48.22 9.84 26.75 12.74 46.41 38.75 52.39 67.66 3.07 15.2 3.39 31.05.4 46.29-5.47 27.6-24.48 51.94-49.54 64.54-13 6.53-27.45 9.78-41.91 10.63-18.73 1.16-38.08-1.21-55.02-9.64-26.63-13.31-45.32-40.56-49.36-69.92-2.73-20.08-.99-41 6.43-59.94 8.92-22.32 25.97-41.96 48.26-51.55 12.58-5.59 26.43-7.7 40.13-7.91zm-2852.31 2.5c11.86-.74 23.88-.1 35.81-.31 46.38.05 92.77-.11 139.15.08.88 1.5.12 3.49.38 5.18.06 111.46-.15 222.93.11 334.38 13.55-13.42 28.07-26.05 43.98-36.68 32.68-22 69.22-38.34 107.45-47.88 22.89-5.53 46.52-7.98 70.05-7.68 42.09.3 85.57 8.32 121.35 31.58 16.43 10.72 30.84 24.6 41.91 40.83 10.93 16.06 18.82 34.01 24.83 52.44 14.99 47.09 18.87 96.87 19.57 146.02.03 136.98-.09 273.98.06 410.96-9.58.63-19.24.09-28.84.27-48.76.02-97.52-.03-146.28.03-.48-22.41-.07-44.87-.2-67.3-.01-85.67 0-171.33 0-257-.17-27.33.66-54.7-1.45-81.97-1.73-21.26-4.71-42.7-12.41-62.71-5.57-14.64-14.76-28.2-27.63-37.36-17.05-12.37-38.36-17.08-59.05-18.36-19.55-1.37-39.47.51-57.98 7.17-20.11 7.03-38.2 18.94-54.02 33.07-19.04 17.02-35.18 38.78-40.35 64.23-1.58 5.88-1.03 11.98-1.11 18v339.91c-.11 20.77.21 41.56-.15 62.32-56.12-.06-112.24-.01-168.36-.03-2.29-.08-4.61.25-6.81-.26.16-227 .02-453.99.07-680.99-.05-82.64.1-165.29-.08-247.94zm968.29 248.51c47.87-1.98 96.48 1.74 142.53 15.67 36.45 11.01 71.02 28.99 99.81 54.06 27.03 23.52 49.08 52.52 65.86 84.13 20.07 38.02 31.93 80 37.33 122.55 3.45 26.22 4.23 52.71 3.64 79.12-1.32 46.25-8.53 92.73-25.26 136.03-13.56 35.25-33.67 68.07-59.67 95.53-26.38 28.2-59.03 50.38-94.73 65.05-41.08 17.01-85.58 24.49-129.86 25.94-47.82 1.41-96.36-2.89-142.05-17.75-36.96-11.85-71.66-31.25-100.17-57.7-25.05-23.33-45.65-51.31-61.36-81.68-19.49-37.82-30.94-79.43-36.05-121.56-3.37-27.51-4.14-55.3-3.06-82.97 1.78-43.91 8.79-87.93 24.3-129.18 13.06-34.99 32.53-67.71 57.96-95.13 25.25-27.46 56.41-49.38 90.66-64.16 40.97-17.87 85.63-25.96 130.12-27.95m-.95 144.21c-18.5 2.18-36.81 7.42-53.02 16.73-15.09 8.58-28.06 20.74-38 34.94-11.96 17.01-19.82 36.59-25 56.64-5.84 22.81-8.46 46.34-9.3 69.83-1.54 43.78 2.58 88.82 20.49 129.27 8.78 19.53 20.3 38.34 36.56 52.54 13.36 11.88 29.62 20.31 46.83 25.07 20.42 5.75 41.9 6.65 62.97 5.08 20.44-1.75 40.86-6.86 58.81-17.03 17.93-9.97 32.8-25.02 43.45-42.48 9.19-14.96 15.5-31.54 19.96-48.48 6.09-23.46 8.66-47.7 9.47-71.89.73-23.19-.15-46.48-3.16-69.5-3.19-23.39-8.77-46.69-19-68.06-8.35-17.5-20.08-33.6-35.29-45.74-14.32-11.57-31.45-19.34-49.29-23.62-21.72-5.1-44.36-5.73-66.48-3.3zm726.41-140.69c28.5-4.73 57.58-4.97 86.31-2.45 39.19 3.53 78.49 14.03 111.81 35.53 31.52 20.04 56.41 49.63 72.52 83.2 21.6 44.72 30.46 94.4 34.2 143.58 4.76 68.78 1.64 139.43-21.07 205.1-6.62 17.78-12.4 35.92-20.41 53.16-16.6 36.79-39.79 71.05-70.42 97.6-28.73 25.2-63.79 42.79-100.79 52.05-45.57 11.56-93.4 11.48-139.68 4.57-32.69-4.96-64.92-13.18-95.85-24.88-.07 75.47-.04 150.95-.01 226.42-.28 1.05.67 3.67-1.34 3.26-55.14.04-110.27.03-165.41 0-.07-291.74-.03-583.48-.02-875.23 54.24 0 108.48.01 162.71 0 0 27.97.12 55.94-.06 83.92 12.75-16.03 27.15-30.83 43.65-43.02 30.34-22.68 66.59-36.78 103.86-42.81m-22.21 137.71c-16.77 1.79-33.46 5.69-48.73 12.97-14.81 6.96-27.41 17.78-38.43 29.73-12.65 13.89-22.7 30.18-29.06 47.87-2.5 7.65-5.63 15.45-4.99 23.64-.01 81.34.02 162.67-.01 244-.46 1.89 1.54 2.72 2.71 3.76 17.98 14.43 39.51 24.02 61.87 29.28 21.24 4.97 43.23 6.48 64.99 5.23 22.34-1.26 44.72-5.68 65.16-15 17.08-7.73 32.49-19.18 44.62-33.5 12.87-15.11 21.87-33.16 28.3-51.85 7.82-23.21 11.98-47.49 14.18-71.83 1.92-21.98 2.4-44.08 1.6-66.13-1.19-25.02-4.62-50.16-12.8-73.93-6.69-19.17-16.8-37.5-31.45-51.76-12.5-12.47-28.29-21.41-45.09-26.68-23.48-7.42-48.54-8.03-72.87-5.8zm663.42-126.48c43.03-15.45 89.71-17.63 134.87-13.07 36.97 3.91 73.85 14.15 105.56 34 25.72 15.97 47.45 38.17 63.21 64 19.52 31.69 30.81 67.75 37.73 104.13 7.55 40.43 9.78 81.68 9.44 122.74-.68 42.37-5.04 84.98-16.78 125.83-3.95 14.29-9.59 28.01-14.37 42.02-10.64 29.31-24.66 57.54-43.04 82.79-19.07 26.32-43.11 49.14-70.96 65.98-31.71 19.32-67.91 30.61-104.66 35.04-43.71 5.32-88.14 1.67-131.09-7.5-22.79-4.87-45.24-11.38-67.03-19.67-.02 76.54-.01 153.07-.01 229.61-55.03.07-110.06.02-165.08.03-.43-.06-1.3-.16-1.73-.21.13-215.36.02-430.72.06-646.08-.04-76.29.06-152.59-.05-228.88 52.86-.13 105.74-.15 158.61.01-.14 27.88-.02 55.76-.06 83.64 5.7-5.57 10.64-12.05 16.47-17.58 24.94-25.22 55.43-45.01 88.91-56.83m17.75 127.13c-21.36 2.76-42.65 9.47-60.15 22.33-27.64 20.58-47.73 51.37-54.68 85.18-.07 83.95-.12 167.92.03 251.87 10.97 10.41 24.17 18.24 38.23 23.74 17.74 7 36.64 10.74 55.61 12.36 22.36 1.76 45.05.84 67.01-3.91 18.95-4.12 37.36-11.51 53.19-22.84 13.95-9.89 25.73-22.74 34.75-37.26 9.23-14.99 15.88-31.46 20.61-48.38 9.89-35.61 12.41-72.82 12.43-109.62-.25-22.42-1.94-44.93-6.76-66.87-4.23-19.19-10.89-38.07-21.56-54.66-8.17-12.85-18.86-24.16-31.54-32.61-15.52-10.5-33.71-16.53-52.15-19.22-18.23-2.58-36.79-2.37-55.02-.11zm1572.18-120.39c44.26-13.64 90.73-18.77 136.92-19.32 53.45-.27 106.99 2.45 159.97 9.74 41.95 5.8 83.59 14.39 124.05 27.01v607.84c-1.51 4.02-.94 8.46-1.64 12.67-2.31 21.85-6.66 43.57-13.85 64.36-11.47 33.98-31.05 65.37-57.49 89.7-27.29 25.4-61 43.12-96.3 54.56-41.52 13.41-85.25 18.75-128.75 19.81-47.86.58-95.87-1.25-143.3-7.99-39.58-5.75-79.04-15.01-115.34-32.16 12.12-37.85 24.69-75.59 35.03-113.99 2.46-8.43 3.88-17.16 6.64-25.51 50.5 24.37 105.24 41.79 161.61 43.81 24.13.63 48.38-.35 72.24-4.27 19.62-3.34 39.23-8.73 56.53-18.83 14.69-8.52 26.72-21.23 35.28-35.84 9.21-15.74 14.28-33.6 16.77-51.59 3.05-20.54 1.12-41.35 2.11-61.99-2.86 11.41-9.05 21.81-17.6 29.87-12.65 12.17-28.78 19.98-45.22 25.62-20.58 6.86-42.1 10.41-63.64 12.4-25.95 2.33-52.06 2.21-78.06 1.08-23.78-1.37-47.72-2.63-71-7.98-32.42-7.22-63.5-21.6-88.81-43.27-28.37-24.04-48.98-56.23-62.37-90.71-15.99-41.06-22.93-85.17-24.28-129.07-.34-14 .26-27.99.19-41.99-.21-27.32 1.55-54.68 5.82-81.68 6.09-38.32 17.6-76.1 36.8-109.97 16.7-29.63 39.39-55.91 66.48-76.51 27.22-20.77 58.55-35.75 91.21-45.8m85.84 124.08c-18.85 3.84-37.29 10.65-53.22 21.56-15.24 10.19-27.89 23.98-37.39 39.61-10.27 16.82-16.99 35.6-21.36 54.76-5.31 23.26-7.15 47.16-7.43 70.97-.01 23.75 1.52 47.61 6.34 70.91 4.19 20.11 10.88 39.93 21.76 57.47 9.42 15.1 21.88 28.47 36.93 38.1 17.07 11.13 37.28 16.81 57.53 18.03 22.39.85 45.03-.52 66.87-5.85 20.45-4.98 39.85-14.3 56.31-27.45 14.45-11.55 27.07-25.35 37.96-40.26.09-93.99.06-187.99.01-281.98-27.39-8.86-55.47-16.19-84.24-18.48-26.65-2.12-53.73-2.66-80.07 2.61zM5310.79 477.76c55.07-.01 110.14-.03 165.21.01 0 225.07.01 450.15-.01 675.23-55.08 0-110.16.01-165.24-.01.02-225.08-.05-450.15.04-675.23zm293.21 2.25c55.66-.02 111.33-.01 166.99-.01.09 38.06-.13 76.12.11 114.17 6.23-8.06 11.97-16.59 18.71-24.29 16.19-19.18 34.99-36.27 56.17-49.79 42.47-27.56 93.7-39.49 143.98-38.84 26.32-.09 52.84 2.39 78.28 9.44 21.85 6.08 42.82 16.09 60.23 30.77 13.75 11.51 25.24 25.7 33.68 41.54 11.51 21.32 18.41 44.8 23.31 68.43 9.56 47.54 10.65 96.23 10.54 144.55v379.26c-57.08.01-114.15.04-171.22-.01-.08-110.08-.01-220.15-.03-330.23-.08-32.4.9-64.99-3.94-97.14-3.22-20.84-8.52-42.19-21.27-59.4-7.94-10.82-18.71-19.51-30.9-25.09-12.13-5.6-25.39-8.33-38.63-9.44-26.89-2.29-54.61 1.35-79.2 12.79-32.83 15.43-60.74 42.56-74.62 76.33-2.02 5.18-4.12 10.39-5.16 15.86-.08 66.68-.01 133.37-.03 200.06-.14 62.69.45 125.4-.75 188.07.16 9.4-.45 18.79-.25 28.2-55.34.02-110.67.03-166-.01V480.01z" fill="#2099e2"/><path d="M989.94 235.91c52.28-24.01 110.57-34.61 167.97-30.97 40.56 2.46 80.68 12.08 117.95 28.3 37 16.08 71.17 38.64 100.54 66.3 12.32 11.22 23.14 23.93 34.07 36.45 8.28 10.46 15.26 21.84 22.25 33.19 9.11 15.16 18.44 30.26 26.02 46.28.45 3.62 2.31 6.82 3.56 10.2 16.17 40.72 24.85 84.54 24.59 128.38 1.07 79.62-26.94 159.08-76.93 220.97-48.61 60.98-118.14 104.91-194.15 122.46-34.8 8.1-70.83 10.97-106.46 8.19 16.23-41.88 24.59-86.75 24.65-131.66-.16-46.57-9.03-93.17-26.68-136.3-30.01-74.32-85.56-137.91-155.01-177.86-42.17-24.54-89.41-40.08-137.79-46.06 34.13-78.07 97.85-142.62 175.42-177.87z" fill="#f12f1e"/><path d="M1458.74 415.46c4.12 6.67 7.24 13.91 10.8 20.89 48.4 99.65 74.75 209.88 76.83 320.63 2.03 92.58-12.64 185.55-43.4 272.92-26.14 74.4-63.87 144.7-111.28 207.72-9.5-8.26-18.32-17.27-27.02-26.35a560.773 560.773 0 01-70.14-90.7c-42-67.49-69.18-144.17-78.72-223.1 76.01-17.55 145.54-61.48 194.15-122.46 49.99-61.89 78-141.35 76.93-220.97.26-43.84-8.42-87.66-24.59-128.38-1.25-3.38-3.11-6.58-3.56-10.2z" fill="#fdc21d"/></svg>